# xmcd CD database file
#
# Track frame offsets:
#	150
#	14301
#	27233
#	47377
#	63589
#	81272
#	97832
#	115270
#	133558
#	148418
#	167582
#	183079
#	200018
#	214519
#	229099
#	250961
#
# Disc length: 3600 seconds
#
# Revision: 0
# Processed by: cddbd v1.5.2PL0 Copyright (c) Steve Scherf et al.
# Submitted via: CDex 1.75
#
DISCID=d70e0e10
DTITLE=Various Artist - Country's Got Heart 1 of 2 Disks
DYEAR=2006
DGENRE=Country
TTITLE0=Clay Walker - Rumor Has It
TTITLE1=Martina McBride - I Love You
TTITLE2=Clint Black - When I Said I Do
TTITLE3=Diamond Rio - One More Day
TTITLE4=Alan Jackson - There Goes
TTITLE5=Jo Dee Messina - Stand Beside Me
TTITLE6=John Michael Montgomery - I Can Love You Like That
TTITLE7=Keith Whitley - It Ain't Nothin'
TTITLE8=Lorrie Morgan - I Didn't Know My Own Strength
TTITLE9=BlackHawk - I'm Not Strong Enough to Say No
TTITLE10=Kevin Sharp - Nobody Knows
TTITLE11=Kenny Rogers - Buy Me A Rose
TTITLE12=Collin Raye - In This Life
TTITLE13=Phil Vassar - Just Another Day In Paradise
TTITLE14=Deana Carter - Strawberry Wine
TTITLE15=Tracy Byrd - The Keeper Of The Stars
EXTD=YEAR: 2006
EXTT0=
EXTT1=
EXTT2=
EXTT3=
EXTT4=
EXTT5=
EXTT6=
EXTT7=
EXTT8=
EXTT9=
EXTT10=
EXTT11=
EXTT12=
EXTT13=
EXTT14=
EXTT15=
PLAYORDER=
